<?xml version="1.0" encoding="UTF-8"?>
<svg xmlns="http://www.w3.org/2000/svg" xmlns:xlink="http://www.w3.org/1999/xlink" width="1152pt" height="288pt" viewBox="0 0 1152 288" version="1.1">
<defs>
<clipPath id="clip1">
  <path d="M 275 34.558594 L 338.085938 34.558594 L 338.085938 237 L 275 237 Z M 275 34.558594 "/>
</clipPath>
<clipPath id="clip2">
  <path d="M 144 170 L 338.085938 170 L 338.085938 252 L 144 252 Z M 144 170 "/>
</clipPath>
<clipPath id="clip3">
  <path d="M 263 34.558594 L 338.085938 34.558594 L 338.085938 121 L 263 121 Z M 263 34.558594 "/>
</clipPath>
<clipPath id="clip4">
  <path d="M 144 94 L 211 94 L 211 252 L 144 252 Z M 144 94 "/>
</clipPath>
<clipPath id="clip5">
  <path d="M 144 34.558594 L 334 34.558594 L 334 77 L 144 77 Z M 144 34.558594 "/>
</clipPath>
<clipPath id="clip6">
  <path d="M 144 34.558594 L 205 34.558594 L 205 206 L 144 206 Z M 144 34.558594 "/>
</clipPath>
<clipPath id="clip7">
  <path d="M 464 34.558594 L 529 34.558594 L 529 132 L 464 132 Z M 464 34.558594 "/>
</clipPath>
<clipPath id="clip8">
  <path d="M 488 130 L 570.992188 130 L 570.992188 252 L 488 252 Z M 488 130 "/>
</clipPath>
<clipPath id="clip9">
  <path d="M 376.90625 63 L 458 63 L 458 234 L 376.90625 234 Z M 376.90625 63 "/>
</clipPath>
<clipPath id="clip10">
  <path d="M 376.90625 34.558594 L 450 34.558594 L 450 103 L 376.90625 103 Z M 376.90625 34.558594 "/>
</clipPath>
<clipPath id="clip11">
  <path d="M 376.90625 133 L 471 133 L 471 252 L 376.90625 252 Z M 376.90625 133 "/>
</clipPath>
<clipPath id="clip12">
  <path d="M 436 34.558594 L 570.992188 34.558594 L 570.992188 135 L 436 135 Z M 436 34.558594 "/>
</clipPath>
<clipPath id="clip13">
  <path d="M 489 148 L 570.992188 148 L 570.992188 239 L 489 239 Z M 489 148 "/>
</clipPath>
<clipPath id="clip14">
  <path d="M 403 146 L 498 146 L 498 252 L 403 252 Z M 403 146 "/>
</clipPath>
<clipPath id="clip15">
  <path d="M 527 34.558594 L 570.992188 34.558594 L 570.992188 151 L 527 151 Z M 527 34.558594 "/>
</clipPath>
<clipPath id="clip16">
  <path d="M 637 34.558594 L 803.894531 34.558594 L 803.894531 104 L 637 104 Z M 637 34.558594 "/>
</clipPath>
<clipPath id="clip17">
  <path d="M 715 58 L 803.894531 58 L 803.894531 165 L 715 165 Z M 715 58 "/>
</clipPath>
<clipPath id="clip18">
  <path d="M 658 167 L 738 167 L 738 252 L 658 252 Z M 658 167 "/>
</clipPath>
<clipPath id="clip19">
  <path d="M 609.808594 34.558594 L 718 34.558594 L 718 128 L 609.808594 128 Z M 609.808594 34.558594 "/>
</clipPath>
<clipPath id="clip20">
  <path d="M 609.808594 34.558594 L 759 34.558594 L 759 252 L 609.808594 252 Z M 609.808594 34.558594 "/>
</clipPath>
<clipPath id="clip21">
  <path d="M 609.808594 100 L 716 100 L 716 140 L 609.808594 140 Z M 609.808594 100 "/>
</clipPath>
<clipPath id="clip22">
  <path d="M 713 139 L 803.894531 139 L 803.894531 252 L 713 252 Z M 713 139 "/>
</clipPath>
<clipPath id="clip23">
  <path d="M 609.808594 143 L 669 143 L 669 250 L 609.808594 250 Z M 609.808594 143 "/>
</clipPath>
<clipPath id="clip24">
  <path d="M 731 34.558594 L 803.894531 34.558594 L 803.894531 252 L 731 252 Z M 731 34.558594 "/>
</clipPath>
<clipPath id="clip25">
  <path d="M 609.808594 76 L 717 76 L 717 172 L 609.808594 172 Z M 609.808594 76 "/>
</clipPath>
<clipPath id="clip26">
  <path d="M 842.714844 34.558594 L 922 34.558594 L 922 140 L 842.714844 140 Z M 842.714844 34.558594 "/>
</clipPath>
<clipPath id="clip27">
  <path d="M 990 119 L 1036.800781 119 L 1036.800781 252 L 990 252 Z M 990 119 "/>
</clipPath>
<clipPath id="clip28">
  <path d="M 842.714844 116 L 915 116 L 915 252 L 842.714844 252 Z M 842.714844 116 "/>
</clipPath>
<clipPath id="clip29">
  <path d="M 939 165 L 1036.800781 165 L 1036.800781 252 L 939 252 Z M 939 165 "/>
</clipPath>
<clipPath id="clip30">
  <path d="M 990 34.558594 L 1036.800781 34.558594 L 1036.800781 124 L 990 124 Z M 990 34.558594 "/>
</clipPath>
<clipPath id="clip31">
  <path d="M 842.714844 172 L 951 172 L 951 252 L 842.714844 252 Z M 842.714844 172 "/>
</clipPath>
<clipPath id="clip32">
  <path d="M 918 34.558594 L 1036.800781 34.558594 L 1036.800781 87 L 918 87 Z M 918 34.558594 "/>
</clipPath>
</defs>
<g id="surface1">
<path style=" stroke:none;fill-rule:nonzero;fill:rgb(12.156677%,46.665955%,70.587158%);fill-opacity:0.4;" d="M 204.460938 85.554688 L 263.484375 117.488281 L 260.503906 121.265625 L 210.140625 143.644531 L 203.324219 94.003906 Z M 204.460938 85.554688 "/>
<g clip-path="url(#clip1)" clip-rule="nonzero">
<path style=" stroke:none;fill-rule:nonzero;fill:rgb(100%,49.803162%,5.490112%);fill-opacity:0.4;" d="M 305.011719 170.351562 L 437.117188 236.34375 L 386.265625 15.933594 L 275.433594 120.058594 Z M 305.011719 170.351562 "/>
</g>
<g clip-path="url(#clip2)" clip-rule="nonzero">
<path style=" stroke:none;fill-rule:nonzero;fill:rgb(17.254639%,62.744141%,17.254639%);fill-opacity:0.4;" d="M 109.703125 346.414062 L 437.117188 236.34375 L 305.011719 170.351562 L 234.777344 190.0625 L 196.957031 217.167969 Z M 109.703125 346.414062 "/>
</g>
<g clip-path="url(#clip3)" clip-rule="nonzero">
<path style=" stroke:none;fill-rule:nonzero;fill:rgb(83.920288%,15.293884%,15.686035%);fill-opacity:0.4;" d="M 263.3125 72.214844 L 265.5625 116.894531 L 275.433594 120.058594 L 386.265625 15.933594 L 333.292969 -69.609375 Z M 263.3125 72.214844 "/>
</g>
<path style=" stroke:none;fill-rule:nonzero;fill:rgb(58.03833%,40.391541%,74.116516%);fill-opacity:0.4;" d="M 263.484375 117.488281 L 265.5625 116.894531 L 275.433594 120.058594 L 305.011719 170.351562 L 234.777344 190.0625 L 260.503906 121.265625 Z M 263.484375 117.488281 "/>
<g clip-path="url(#clip4)" clip-rule="nonzero">
<path style=" stroke:none;fill-rule:nonzero;fill:rgb(54.901123%,33.724976%,29.411316%);fill-opacity:0.4;" d="M 98.195312 205.304688 L 109.703125 346.414062 L 196.957031 217.167969 L 210.140625 143.644531 L 203.324219 94.003906 Z M 98.195312 205.304688 "/>
</g>
<g clip-path="url(#clip5)" clip-rule="nonzero">
<path style=" stroke:none;fill-rule:nonzero;fill:rgb(89.01825%,46.665955%,76.077271%);fill-opacity:0.4;" d="M 201.996094 76.710938 L 263.3125 72.214844 L 333.292969 -69.609375 L 127.703125 -62.332031 Z M 201.996094 76.710938 "/>
</g>
<path style=" stroke:none;fill-rule:nonzero;fill:rgb(49.803162%,49.803162%,49.803162%);fill-opacity:0.4;" d="M 210.140625 143.644531 L 196.957031 217.167969 L 234.777344 190.0625 L 260.503906 121.265625 Z M 210.140625 143.644531 "/>
<path style=" stroke:none;fill-rule:nonzero;fill:rgb(73.724365%,74.116516%,13.33313%);fill-opacity:0.4;" d="M 204.460938 85.554688 L 201.996094 76.710938 L 263.3125 72.214844 L 265.5625 116.894531 L 263.484375 117.488281 Z M 204.460938 85.554688 "/>
<g clip-path="url(#clip6)" clip-rule="nonzero">
<path style=" stroke:none;fill-rule:nonzero;fill:rgb(9.01947%,74.508667%,81.175232%);fill-opacity:0.4;" d="M 98.195312 205.304688 L 203.324219 94.003906 L 204.460938 85.554688 L 201.996094 76.710938 L 127.703125 -62.332031 Z M 98.195312 205.304688 "/>
</g>
<path style="fill-rule:nonzero;fill:rgb(12.156677%,46.665955%,70.587158%);fill-opacity:1;stroke-width:1;stroke-linecap:butt;stroke-linejoin:bevel;stroke:rgb(12.156677%,46.665955%,70.587158%);stroke-opacity:1;stroke-miterlimit:10;" d="M 230.835938 168.042969 L 230.164062 165.96875 L 227.984375 165.96875 L 229.746094 164.6875 L 229.074219 162.613281 L 230.835938 163.894531 L 232.601562 162.613281 L 231.925781 164.6875 L 233.691406 165.96875 L 231.511719 165.96875 Z M 230.835938 168.042969 " transform="matrix(1,0,0,-1,0,288)"/>
<path style="fill-rule:nonzero;fill:rgb(100%,49.803162%,5.490112%);fill-opacity:1;stroke-width:1;stroke-linecap:butt;stroke-linejoin:bevel;stroke:rgb(100%,49.803162%,5.490112%);stroke-opacity:1;stroke-miterlimit:10;" d="M 308.683594 170.503906 L 308.007812 168.429688 L 305.828125 168.429688 L 307.59375 167.148438 L 306.917969 165.078125 L 308.683594 166.359375 L 310.445312 165.078125 L 309.773438 167.148438 L 311.535156 168.429688 L 309.355469 168.429688 Z M 308.683594 170.503906 " transform="matrix(1,0,0,-1,0,288)"/>
<path style="fill-rule:nonzero;fill:rgb(17.254639%,62.744141%,17.254639%);fill-opacity:1;stroke-width:1;stroke-linecap:butt;stroke-linejoin:bevel;stroke:rgb(17.254639%,62.744141%,17.254639%);stroke-opacity:1;stroke-miterlimit:10;" d="M 274.363281 84.269531 L 273.6875 82.195312 L 271.507812 82.195312 L 273.273438 80.914062 L 272.597656 78.84375 L 274.363281 80.125 L 276.125 78.84375 L 275.449219 80.914062 L 277.214844 82.195312 L 275.035156 82.195312 Z M 274.363281 84.269531 " transform="matrix(1,0,0,-1,0,288)"/>
<path style="fill-rule:nonzero;fill:rgb(83.920288%,15.293884%,15.686035%);fill-opacity:1;stroke-width:1;stroke-linecap:butt;stroke-linejoin:bevel;stroke:rgb(83.920288%,15.293884%,15.686035%);stroke-opacity:1;stroke-miterlimit:10;" d="M 280.839844 207.699219 L 280.167969 205.625 L 277.988281 205.625 L 279.75 204.34375 L 279.078125 202.269531 L 280.839844 203.550781 L 282.605469 202.269531 L 281.929688 204.34375 L 283.695312 205.625 L 281.515625 205.625 Z M 280.839844 207.699219 " transform="matrix(1,0,0,-1,0,288)"/>
<path style="fill-rule:nonzero;fill:rgb(58.03833%,40.391541%,74.116516%);fill-opacity:1;stroke-width:1;stroke-linecap:butt;stroke-linejoin:bevel;stroke:rgb(58.03833%,40.391541%,74.116516%);stroke-opacity:1;stroke-miterlimit:10;" d="M 262.671875 136.542969 L 262 134.46875 L 259.820312 134.46875 L 261.582031 133.1875 L 260.910156 131.113281 L 262.671875 132.394531 L 264.433594 131.113281 L 263.761719 133.1875 L 265.523438 134.46875 L 263.347656 134.46875 Z M 262.671875 136.542969 " transform="matrix(1,0,0,-1,0,288)"/>
<path style="fill-rule:nonzero;fill:rgb(54.901123%,33.724976%,29.411316%);fill-opacity:1;stroke-width:1;stroke-linecap:butt;stroke-linejoin:bevel;stroke:rgb(54.901123%,33.724976%,29.411316%);stroke-opacity:1;stroke-miterlimit:10;" d="M 184.851562 160.117188 L 184.175781 158.042969 L 181.996094 158.042969 L 183.761719 156.761719 L 183.085938 154.6875 L 184.851562 155.96875 L 186.613281 154.6875 L 185.941406 156.761719 L 187.703125 158.042969 L 185.523438 158.042969 Z M 184.851562 160.117188 " transform="matrix(1,0,0,-1,0,288)"/>
<path style="fill-rule:nonzero;fill:rgb(89.01825%,46.665955%,76.077271%);fill-opacity:1;stroke-width:1;stroke-linecap:butt;stroke-linejoin:bevel;stroke:rgb(89.01825%,46.665955%,76.077271%);stroke-opacity:1;stroke-miterlimit:10;" d="M 245.609375 229.519531 L 244.933594 227.445312 L 242.753906 227.445312 L 244.519531 226.164062 L 243.84375 224.09375 L 245.609375 225.371094 L 247.371094 224.09375 L 246.699219 226.164062 L 248.460938 227.445312 L 246.28125 227.445312 Z M 245.609375 229.519531 " transform="matrix(1,0,0,-1,0,288)"/>
<path style="fill-rule:nonzero;fill:rgb(49.803162%,49.803162%,49.803162%);fill-opacity:1;stroke-width:1;stroke-linecap:butt;stroke-linejoin:bevel;stroke:rgb(49.803162%,49.803162%,49.803162%);stroke-opacity:1;stroke-miterlimit:10;" d="M 237.867188 148.183594 L 237.191406 146.109375 L 235.011719 146.109375 L 236.777344 144.828125 L 236.101562 142.757812 L 237.867188 144.039062 L 239.628906 142.757812 L 238.957031 144.828125 L 240.71875 146.109375 L 238.539062 146.109375 Z M 237.867188 148.183594 " transform="matrix(1,0,0,-1,0,288)"/>
<path style="fill-rule:nonzero;fill:rgb(73.724365%,74.116516%,13.33313%);fill-opacity:1;stroke-width:1;stroke-linecap:butt;stroke-linejoin:bevel;stroke:rgb(73.724365%,74.116516%,13.33313%);stroke-opacity:1;stroke-miterlimit:10;" d="M 247.007812 205.558594 L 246.335938 203.488281 L 244.15625 203.488281 L 245.917969 202.207031 L 245.246094 200.132812 L 247.007812 201.414062 L 248.769531 200.132812 L 248.097656 202.207031 L 249.859375 203.488281 L 247.683594 203.488281 Z M 247.007812 205.558594 " transform="matrix(1,0,0,-1,0,288)"/>
<path style="fill-rule:nonzero;fill:rgb(9.01947%,74.508667%,81.175232%);fill-opacity:1;stroke-width:1;stroke-linecap:butt;stroke-linejoin:bevel;stroke:rgb(9.01947%,74.508667%,81.175232%);stroke-opacity:1;stroke-miterlimit:10;" d="M 169.410156 178.417969 L 168.738281 176.347656 L 166.558594 176.347656 L 168.320312 175.066406 L 167.648438 172.992188 L 169.410156 174.273438 L 171.175781 172.992188 L 170.5 175.066406 L 172.265625 176.347656 L 170.085938 176.347656 Z M 169.410156 178.417969 " transform="matrix(1,0,0,-1,0,288)"/>
<g clip-path="url(#clip7)" clip-rule="nonzero">
<path style=" stroke:none;fill-rule:nonzero;fill:rgb(12.156677%,46.665955%,70.587158%);fill-opacity:0.4;" d="M 464.539062 131.386719 L 528.878906 26.367188 L 527.921875 117.335938 Z M 464.539062 131.386719 "/>
</g>
<path style=" stroke:none;fill-rule:nonzero;fill:rgb(100%,49.803162%,5.490112%);fill-opacity:0.4;" d="M 461.972656 134.074219 L 470.875 146.984375 L 489.691406 172.207031 L 567.601562 148.691406 L 527.921875 117.335938 L 464.539062 131.386719 Z M 461.972656 134.074219 "/>
<g clip-path="url(#clip8)" clip-rule="nonzero">
<path style=" stroke:none;fill-rule:nonzero;fill:rgb(17.254639%,62.744141%,17.254639%);fill-opacity:0.4;" d="M 497.542969 238.894531 L 488.871094 408.253906 L 744.242188 130.867188 L 593.804688 150.164062 Z M 497.542969 238.894531 "/>
</g>
<g clip-path="url(#clip9)" clip-rule="nonzero">
<path style=" stroke:none;fill-rule:nonzero;fill:rgb(83.920288%,15.293884%,15.686035%);fill-opacity:0.4;" d="M 335.566406 234 L 457.304688 133.125 L 436.328125 102.3125 L 288.976562 63.265625 Z M 335.566406 234 "/>
</g>
<g clip-path="url(#clip10)" clip-rule="nonzero">
<path style=" stroke:none;fill-rule:nonzero;fill:rgb(58.03833%,40.391541%,74.116516%);fill-opacity:0.4;" d="M 288.976562 63.265625 L 436.328125 102.3125 L 449.671875 -66.667969 Z M 288.976562 63.265625 "/>
</g>
<g clip-path="url(#clip11)" clip-rule="nonzero">
<path style=" stroke:none;fill-rule:nonzero;fill:rgb(54.901123%,33.724976%,29.411316%);fill-opacity:0.4;" d="M 335.566406 234 L 403.75 299.039062 L 470.875 146.984375 L 461.972656 134.074219 L 457.304688 133.125 Z M 335.566406 234 "/>
</g>
<g clip-path="url(#clip12)" clip-rule="nonzero">
<path style=" stroke:none;fill-rule:nonzero;fill:rgb(89.01825%,46.665955%,76.077271%);fill-opacity:0.4;" d="M 436.328125 102.3125 L 457.304688 133.125 L 461.972656 134.074219 L 464.539062 131.386719 L 528.878906 26.367188 L 594.589844 -126.464844 L 449.671875 -66.667969 Z M 436.328125 102.3125 "/>
</g>
<g clip-path="url(#clip13)" clip-rule="nonzero">
<path style=" stroke:none;fill-rule:nonzero;fill:rgb(49.803162%,49.803162%,49.803162%);fill-opacity:0.4;" d="M 567.601562 148.691406 L 593.804688 150.164062 L 497.542969 238.894531 L 489.691406 172.207031 Z M 567.601562 148.691406 "/>
</g>
<g clip-path="url(#clip14)" clip-rule="nonzero">
<path style=" stroke:none;fill-rule:nonzero;fill:rgb(73.724365%,74.116516%,13.33313%);fill-opacity:0.4;" d="M 403.75 299.039062 L 488.871094 408.253906 L 497.542969 238.894531 L 489.691406 172.207031 L 470.875 146.984375 Z M 403.75 299.039062 "/>
</g>
<g clip-path="url(#clip15)" clip-rule="nonzero">
<path style=" stroke:none;fill-rule:nonzero;fill:rgb(9.01947%,74.508667%,81.175232%);fill-opacity:0.4;" d="M 527.921875 117.335938 L 567.601562 148.691406 L 593.804688 150.164062 L 744.242188 130.867188 L 594.589844 -126.464844 L 528.878906 26.367188 Z M 527.921875 117.335938 "/>
</g>
<path style="fill-rule:nonzero;fill:rgb(12.156677%,46.665955%,70.587158%);fill-opacity:1;stroke-width:1;stroke-linecap:butt;stroke-linejoin:bevel;stroke:rgb(12.156677%,46.665955%,70.587158%);stroke-opacity:1;stroke-miterlimit:10;" d="M 517.152344 185.429688 L 516.476562 183.359375 L 514.296875 183.359375 L 516.0625 182.078125 L 515.386719 180.003906 L 517.152344 181.285156 L 518.914062 180.003906 L 518.242188 182.078125 L 520.003906 183.359375 L 517.824219 183.359375 Z M 517.152344 185.429688 " transform="matrix(1,0,0,-1,0,288)"/>
<path style="fill-rule:nonzero;fill:rgb(100%,49.803162%,5.490112%);fill-opacity:1;stroke-width:1;stroke-linecap:butt;stroke-linejoin:bevel;stroke:rgb(100%,49.803162%,5.490112%);stroke-opacity:1;stroke-miterlimit:10;" d="M 521.960938 158.1875 L 521.289062 156.113281 L 519.109375 156.113281 L 520.875 154.832031 L 520.199219 152.757812 L 521.960938 154.039062 L 523.726562 152.757812 L 523.050781 154.832031 L 524.816406 156.113281 L 522.636719 156.113281 Z M 521.960938 158.1875 " transform="matrix(1,0,0,-1,0,288)"/>
<path style="fill-rule:nonzero;fill:rgb(17.254639%,62.744141%,17.254639%);fill-opacity:1;stroke-width:1;stroke-linecap:butt;stroke-linejoin:bevel;stroke:rgb(17.254639%,62.744141%,17.254639%);stroke-opacity:1;stroke-miterlimit:10;" d="M 549.292969 83.785156 L 548.617188 81.710938 L 546.4375 81.710938 L 548.203125 80.429688 L 547.527344 78.359375 L 549.292969 79.640625 L 551.054688 78.359375 L 550.382812 80.429688 L 552.144531 81.710938 L 549.964844 81.710938 Z M 549.292969 83.785156 " transform="matrix(1,0,0,-1,0,288)"/>
<path style="fill-rule:nonzero;fill:rgb(83.920288%,15.293884%,15.686035%);fill-opacity:1;stroke-width:1;stroke-linecap:butt;stroke-linejoin:bevel;stroke:rgb(83.920288%,15.293884%,15.686035%);stroke-opacity:1;stroke-miterlimit:10;" d="M 397.875 164.734375 L 397.199219 162.660156 L 395.019531 162.660156 L 396.785156 161.378906 L 396.109375 159.304688 L 397.875 160.585938 L 399.636719 159.304688 L 398.964844 161.378906 L 400.726562 162.660156 L 398.546875 162.660156 Z M 397.875 164.734375 " transform="matrix(1,0,0,-1,0,288)"/>
<path style="fill-rule:nonzero;fill:rgb(58.03833%,40.391541%,74.116516%);fill-opacity:1;stroke-width:1;stroke-linecap:butt;stroke-linejoin:bevel;stroke:rgb(58.03833%,40.391541%,74.116516%);stroke-opacity:1;stroke-miterlimit:10;" d="M 411.527344 229.40625 L 410.855469 227.332031 L 408.675781 227.332031 L 410.4375 226.050781 L 409.765625 223.980469 L 411.527344 225.261719 L 413.289062 223.980469 L 412.617188 226.050781 L 414.378906 227.332031 L 412.199219 227.332031 Z M 411.527344 229.40625 " transform="matrix(1,0,0,-1,0,288)"/>
<path style="fill-rule:nonzero;fill:rgb(54.901123%,33.724976%,29.411316%);fill-opacity:1;stroke-width:1;stroke-linecap:butt;stroke-linejoin:bevel;stroke:rgb(54.901123%,33.724976%,29.411316%);stroke-opacity:1;stroke-miterlimit:10;" d="M 445.757812 92.203125 L 445.085938 90.128906 L 442.90625 90.128906 L 444.667969 88.847656 L 443.996094 86.777344 L 445.757812 88.058594 L 447.519531 86.777344 L 446.847656 88.847656 L 448.609375 90.128906 L 446.429688 90.128906 Z M 445.757812 92.203125 " transform="matrix(1,0,0,-1,0,288)"/>
<path style="fill-rule:nonzero;fill:rgb(89.01825%,46.665955%,76.077271%);fill-opacity:1;stroke-width:1;stroke-linecap:butt;stroke-linejoin:bevel;stroke:rgb(89.01825%,46.665955%,76.077271%);stroke-opacity:1;stroke-miterlimit:10;" d="M 467.125 223.898438 L 466.449219 221.824219 L 464.269531 221.824219 L 466.035156 220.542969 L 465.359375 218.46875 L 467.125 219.75 L 468.886719 218.46875 L 468.214844 220.542969 L 469.976562 221.824219 L 467.796875 221.824219 Z M 467.125 223.898438 " transform="matrix(1,0,0,-1,0,288)"/>
<path style="fill-rule:nonzero;fill:rgb(49.803162%,49.803162%,49.803162%);fill-opacity:1;stroke-width:1;stroke-linecap:butt;stroke-linejoin:bevel;stroke:rgb(49.803162%,49.803162%,49.803162%);stroke-opacity:1;stroke-miterlimit:10;" d="M 535.257812 102.894531 L 534.585938 100.820312 L 532.40625 100.820312 L 534.167969 99.539062 L 533.496094 97.46875 L 535.257812 98.75 L 537.023438 97.46875 L 536.347656 99.539062 L 538.109375 100.820312 L 535.933594 100.820312 Z M 535.257812 102.894531 " transform="matrix(1,0,0,-1,0,288)"/>
<path style="fill-rule:nonzero;fill:rgb(73.724365%,74.116516%,13.33313%);fill-opacity:1;stroke-width:1;stroke-linecap:butt;stroke-linejoin:bevel;stroke:rgb(73.724365%,74.116516%,13.33313%);stroke-opacity:1;stroke-miterlimit:10;" d="M 449.363281 90.203125 L 448.691406 88.132812 L 446.511719 88.132812 L 448.273438 86.851562 L 447.601562 84.777344 L 449.363281 86.058594 L 451.128906 84.777344 L 450.453125 86.851562 L 452.21875 88.132812 L 450.039062 88.132812 Z M 449.363281 90.203125 " transform="matrix(1,0,0,-1,0,288)"/>
<path style="fill-rule:nonzero;fill:rgb(9.01947%,74.508667%,81.175232%);fill-opacity:1;stroke-width:1;stroke-linecap:butt;stroke-linejoin:bevel;stroke:rgb(9.01947%,74.508667%,81.175232%);stroke-opacity:1;stroke-miterlimit:10;" d="M 538.933594 185.144531 L 538.261719 183.070312 L 536.082031 183.070312 L 537.84375 181.789062 L 537.171875 179.714844 L 538.933594 180.996094 L 540.699219 179.714844 L 540.023438 181.789062 L 541.789062 183.070312 L 539.609375 183.070312 Z M 538.933594 185.144531 " transform="matrix(1,0,0,-1,0,288)"/>
<g clip-path="url(#clip16)" clip-rule="nonzero">
<path style=" stroke:none;fill-rule:nonzero;fill:rgb(12.156677%,46.665955%,70.587158%);fill-opacity:0.4;" d="M 717.996094 103.867188 L 952.476562 58.03125 L 1094.921875 -1.320312 L 637.957031 -40.871094 Z M 717.996094 103.867188 "/>
</g>
<g clip-path="url(#clip17)" clip-rule="nonzero">
<path style=" stroke:none;fill-rule:nonzero;fill:rgb(100%,49.803162%,5.490112%);fill-opacity:0.4;" d="M 715.164062 128 L 717.996094 103.867188 L 952.476562 58.03125 L 811.121094 139.351562 L 716.851562 164.640625 L 715.359375 139.605469 Z M 715.164062 128 "/>
</g>
<g clip-path="url(#clip18)" clip-rule="nonzero">
<path style=" stroke:none;fill-rule:nonzero;fill:rgb(17.254639%,62.744141%,17.254639%);fill-opacity:0.4;" d="M 713.683594 171.410156 L 658.195312 167.46875 L 668.949219 249.328125 L 737.796875 423.605469 L 731.808594 255.625 Z M 713.683594 171.410156 "/>
</g>
<g clip-path="url(#clip19)" clip-rule="nonzero">
<path style=" stroke:none;fill-rule:nonzero;fill:rgb(83.920288%,15.293884%,15.686035%);fill-opacity:0.4;" d="M 467.464844 76.066406 L 579.347656 100.820312 L 715.164062 128 L 717.996094 103.867188 L 637.957031 -40.871094 L 328.078125 8.210938 Z M 467.464844 76.066406 "/>
</g>
<g clip-path="url(#clip20)" clip-rule="nonzero">
<path style=" stroke:none;fill-rule:nonzero;fill:rgb(58.03833%,40.391541%,74.116516%);fill-opacity:0.4;" d="M 758.148438 592.335938 L 737.796875 423.605469 L 668.949219 249.328125 L 594.179688 143.609375 L 467.464844 76.066406 L 328.078125 8.210938 Z M 758.148438 592.335938 "/>
</g>
<g clip-path="url(#clip21)" clip-rule="nonzero">
<path style=" stroke:none;fill-rule:nonzero;fill:rgb(54.901123%,33.724976%,29.411316%);fill-opacity:0.4;" d="M 715.164062 128 L 715.359375 139.605469 L 579.347656 100.820312 Z M 715.164062 128 "/>
</g>
<g clip-path="url(#clip22)" clip-rule="nonzero">
<path style=" stroke:none;fill-rule:nonzero;fill:rgb(89.01825%,46.665955%,76.077271%);fill-opacity:0.4;" d="M 716.851562 164.640625 L 811.121094 139.351562 L 731.808594 255.625 L 713.683594 171.410156 Z M 716.851562 164.640625 "/>
</g>
<g clip-path="url(#clip23)" clip-rule="nonzero">
<path style=" stroke:none;fill-rule:nonzero;fill:rgb(49.803162%,49.803162%,49.803162%);fill-opacity:0.4;" d="M 658.195312 167.46875 L 594.179688 143.609375 L 668.949219 249.328125 Z M 658.195312 167.46875 "/>
</g>
<g clip-path="url(#clip24)" clip-rule="nonzero">
<path style=" stroke:none;fill-rule:nonzero;fill:rgb(73.724365%,74.116516%,13.33313%);fill-opacity:0.4;" d="M 731.808594 255.625 L 737.796875 423.605469 L 758.148438 592.335938 L 1094.921875 -1.320312 L 952.476562 58.03125 L 811.121094 139.351562 Z M 731.808594 255.625 "/>
</g>
<g clip-path="url(#clip25)" clip-rule="nonzero">
<path style=" stroke:none;fill-rule:nonzero;fill:rgb(9.01947%,74.508667%,81.175232%);fill-opacity:0.4;" d="M 579.347656 100.820312 L 467.464844 76.066406 L 594.179688 143.609375 L 658.195312 167.46875 L 713.683594 171.410156 L 716.851562 164.640625 L 715.359375 139.605469 Z M 579.347656 100.820312 "/>
</g>
<path style="fill-rule:nonzero;fill:rgb(12.156677%,46.665955%,70.587158%);fill-opacity:1;stroke-width:1;stroke-linecap:butt;stroke-linejoin:bevel;stroke:rgb(12.156677%,46.665955%,70.587158%);stroke-opacity:1;stroke-miterlimit:10;" d="M 743.511719 220.214844 L 742.839844 218.144531 L 740.660156 218.144531 L 742.421875 216.863281 L 741.75 214.789062 L 743.511719 216.070312 L 745.273438 214.789062 L 744.601562 216.863281 L 746.363281 218.144531 L 744.183594 218.144531 Z M 743.511719 220.214844 " transform="matrix(1,0,0,-1,0,288)"/>
<path style="fill-rule:nonzero;fill:rgb(100%,49.803162%,5.490112%);fill-opacity:1;stroke-width:1;stroke-linecap:butt;stroke-linejoin:bevel;stroke:rgb(100%,49.803162%,5.490112%);stroke-opacity:1;stroke-miterlimit:10;" d="M 752.003906 165.6875 L 751.332031 163.613281 L 749.152344 163.613281 L 750.914062 162.332031 L 750.242188 160.261719 L 752.003906 161.539062 L 753.765625 160.261719 L 753.09375 162.332031 L 754.855469 163.613281 L 752.675781 163.613281 Z M 752.003906 165.6875 " transform="matrix(1,0,0,-1,0,288)"/>
<path style="fill-rule:nonzero;fill:rgb(17.254639%,62.744141%,17.254639%);fill-opacity:1;stroke-width:1;stroke-linecap:butt;stroke-linejoin:bevel;stroke:rgb(17.254639%,62.744141%,17.254639%);stroke-opacity:1;stroke-miterlimit:10;" d="M 673.070312 84.554688 L 672.394531 82.480469 L 670.214844 82.480469 L 671.980469 81.199219 L 671.304688 79.125 L 673.070312 80.40625 L 674.832031 79.125 L 674.160156 81.199219 L 675.921875 82.480469 L 673.742188 82.480469 Z M 673.070312 84.554688 " transform="matrix(1,0,0,-1,0,288)"/>
<path style="fill-rule:nonzero;fill:rgb(83.920288%,15.293884%,15.686035%);fill-opacity:1;stroke-width:1;stroke-linecap:butt;stroke-linejoin:bevel;stroke:rgb(83.920288%,15.293884%,15.686035%);stroke-opacity:1;stroke-miterlimit:10;" d="M 680.195312 176.269531 L 679.519531 174.195312 L 677.339844 174.195312 L 679.105469 172.914062 L 678.429688 170.839844 L 680.195312 172.121094 L 681.957031 170.839844 L 681.285156 172.914062 L 683.046875 174.195312 L 680.867188 174.195312 Z M 680.195312 176.269531 " transform="matrix(1,0,0,-1,0,288)"/>
<path style="fill-rule:nonzero;fill:rgb(58.03833%,40.391541%,74.116516%);fill-opacity:1;stroke-width:1;stroke-linecap:butt;stroke-linejoin:bevel;stroke:rgb(58.03833%,40.391541%,74.116516%);stroke-opacity:1;stroke-miterlimit:10;" d="M 637.84375 67.085938 L 637.171875 65.015625 L 634.992188 65.015625 L 636.753906 63.734375 L 636.082031 61.660156 L 637.84375 62.941406 L 639.609375 61.660156 L 638.933594 63.734375 L 640.699219 65.015625 L 638.519531 65.015625 Z M 637.84375 67.085938 " transform="matrix(1,0,0,-1,0,288)"/>
<path style="fill-rule:nonzero;fill:rgb(54.901123%,33.724976%,29.411316%);fill-opacity:1;stroke-width:1;stroke-linecap:butt;stroke-linejoin:bevel;stroke:rgb(54.901123%,33.724976%,29.411316%);stroke-opacity:1;stroke-miterlimit:10;" d="M 678.253906 164.117188 L 677.582031 162.042969 L 675.402344 162.042969 L 677.167969 160.761719 L 676.492188 158.6875 L 678.253906 159.96875 L 680.019531 158.6875 L 679.34375 160.761719 L 681.109375 162.042969 L 678.929688 162.042969 Z M 678.253906 164.117188 " transform="matrix(1,0,0,-1,0,288)"/>
<path style="fill-rule:nonzero;fill:rgb(89.01825%,46.665955%,76.077271%);fill-opacity:1;stroke-width:1;stroke-linecap:butt;stroke-linejoin:bevel;stroke:rgb(89.01825%,46.665955%,76.077271%);stroke-opacity:1;stroke-miterlimit:10;" d="M 764.089844 109.136719 L 763.417969 107.0625 L 761.238281 107.0625 L 763 105.78125 L 762.328125 103.707031 L 764.089844 104.988281 L 765.855469 103.707031 L 765.179688 105.78125 L 766.945312 107.0625 L 764.765625 107.0625 Z M 764.089844 109.136719 " transform="matrix(1,0,0,-1,0,288)"/>
<path style="fill-rule:nonzero;fill:rgb(49.803162%,49.803162%,49.803162%);fill-opacity:1;stroke-width:1;stroke-linecap:butt;stroke-linejoin:bevel;stroke:rgb(49.803162%,49.803162%,49.803162%);stroke-opacity:1;stroke-miterlimit:10;" d="M 653.972656 81.40625 L 653.300781 79.332031 L 651.121094 79.332031 L 652.882812 78.050781 L 652.210938 75.976562 L 653.972656 77.257812 L 655.738281 75.976562 L 655.0625 78.050781 L 656.828125 79.332031 L 654.648438 79.332031 Z M 653.972656 81.40625 " transform="matrix(1,0,0,-1,0,288)"/>
<path style="fill-rule:nonzero;fill:rgb(73.724365%,74.116516%,13.33313%);fill-opacity:1;stroke-width:1;stroke-linecap:butt;stroke-linejoin:bevel;stroke:rgb(73.724365%,74.116516%,13.33313%);stroke-opacity:1;stroke-miterlimit:10;" d="M 786.855469 89.644531 L 786.183594 87.570312 L 784.003906 87.570312 L 785.765625 86.289062 L 785.09375 84.21875 L 786.855469 85.5 L 788.621094 84.21875 L 787.945312 86.289062 L 789.710938 87.570312 L 787.53125 87.570312 Z M 786.855469 89.644531 " transform="matrix(1,0,0,-1,0,288)"/>
<path style="fill-rule:nonzero;fill:rgb(9.01947%,74.508667%,81.175232%);fill-opacity:1;stroke-width:1;stroke-linecap:butt;stroke-linejoin:bevel;stroke:rgb(9.01947%,74.508667%,81.175232%);stroke-opacity:1;stroke-miterlimit:10;" d="M 677.34375 160.09375 L 676.667969 158.019531 L 674.488281 158.019531 L 676.253906 156.742188 L 675.578125 154.667969 L 677.34375 155.949219 L 679.105469 154.667969 L 678.433594 156.742188 L 680.195312 158.019531 L 678.015625 158.019531 Z M 677.34375 160.09375 " transform="matrix(1,0,0,-1,0,288)"/>
<g clip-path="url(#clip26)" clip-rule="nonzero">
<path style=" stroke:none;fill-rule:nonzero;fill:rgb(12.156677%,46.665955%,70.587158%);fill-opacity:0.4;" d="M 750.65625 139.355469 L 905.839844 116.253906 L 921.441406 82.105469 L 918.578125 -93.25 Z M 750.65625 139.355469 "/>
</g>
<g clip-path="url(#clip27)" clip-rule="nonzero">
<path style=" stroke:none;fill-rule:nonzero;fill:rgb(100%,49.803162%,5.490112%);fill-opacity:0.4;" d="M 1124.300781 256.257812 L 1147.945312 119.28125 L 991.445312 123.625 L 990.082031 165.988281 Z M 1124.300781 256.257812 "/>
</g>
<g clip-path="url(#clip28)" clip-rule="nonzero">
<path style=" stroke:none;fill-rule:nonzero;fill:rgb(17.254639%,62.744141%,17.254639%);fill-opacity:0.4;" d="M 786.515625 279.015625 L 911.121094 172.847656 L 914.796875 140.722656 L 905.839844 116.253906 L 750.65625 139.355469 Z M 786.515625 279.015625 "/>
</g>
<g clip-path="url(#clip29)" clip-rule="nonzero">
<path style=" stroke:none;fill-rule:nonzero;fill:rgb(83.920288%,15.293884%,15.686035%);fill-opacity:0.4;" d="M 950.988281 405.507812 L 1124.300781 256.257812 L 990.082031 165.988281 L 981.464844 167.570312 L 939.71875 230.578125 Z M 950.988281 405.507812 "/>
</g>
<path style=" stroke:none;fill-rule:nonzero;fill:rgb(58.03833%,40.391541%,74.116516%);fill-opacity:0.4;" d="M 981.464844 167.570312 L 914.796875 140.722656 L 911.121094 172.847656 L 939.71875 230.578125 Z M 981.464844 167.570312 "/>
<g clip-path="url(#clip30)" clip-rule="nonzero">
<path style=" stroke:none;fill-rule:nonzero;fill:rgb(54.901123%,33.724976%,29.411316%);fill-opacity:0.4;" d="M 990.777344 121.25 L 991.445312 123.625 L 1147.945312 119.28125 L 1132.460938 -38.261719 L 1013.960938 76.339844 Z M 990.777344 121.25 "/>
</g>
<g clip-path="url(#clip31)" clip-rule="nonzero">
<path style=" stroke:none;fill-rule:nonzero;fill:rgb(89.01825%,46.665955%,76.077271%);fill-opacity:0.4;" d="M 786.515625 279.015625 L 950.988281 405.507812 L 939.71875 230.578125 L 911.121094 172.847656 Z M 786.515625 279.015625 "/>
</g>
<path style=" stroke:none;fill-rule:nonzero;fill:rgb(49.803162%,49.803162%,49.803162%);fill-opacity:0.4;" d="M 1013.960938 76.339844 L 933.886719 86.253906 L 990.777344 121.25 Z M 1013.960938 76.339844 "/>
<g clip-path="url(#clip32)" clip-rule="nonzero">
<path style=" stroke:none;fill-rule:nonzero;fill:rgb(73.724365%,74.116516%,13.33313%);fill-opacity:0.4;" d="M 921.441406 82.105469 L 933.886719 86.253906 L 1013.960938 76.339844 L 1132.460938 -38.261719 L 918.578125 -93.25 Z M 921.441406 82.105469 "/>
</g>
<path style=" stroke:none;fill-rule:nonzero;fill:rgb(9.01947%,74.508667%,81.175232%);fill-opacity:0.4;" d="M 990.777344 121.25 L 933.886719 86.253906 L 921.441406 82.105469 L 905.839844 116.253906 L 914.796875 140.722656 L 981.464844 167.570312 L 990.082031 165.988281 L 991.445312 123.625 Z M 990.777344 121.25 "/>
<path style="fill-rule:nonzero;fill:rgb(12.156677%,46.665955%,70.587158%);fill-opacity:1;stroke-width:1;stroke-linecap:butt;stroke-linejoin:bevel;stroke:rgb(12.156677%,46.665955%,70.587158%);stroke-opacity:1;stroke-miterlimit:10;" d="M 860.398438 220.316406 L 859.726562 218.246094 L 857.546875 218.246094 L 859.308594 216.964844 L 858.636719 214.890625 L 860.398438 216.171875 L 862.164062 214.890625 L 861.488281 216.964844 L 863.253906 218.246094 L 861.074219 218.246094 Z M 860.398438 220.316406 " transform="matrix(1,0,0,-1,0,288)"/>
<path style="fill-rule:nonzero;fill:rgb(100%,49.803162%,5.490112%);fill-opacity:1;stroke-width:1;stroke-linecap:butt;stroke-linejoin:bevel;stroke:rgb(100%,49.803162%,5.490112%);stroke-opacity:1;stroke-miterlimit:10;" d="M 1016.945312 158.03125 L 1016.273438 155.957031 L 1014.09375 155.957031 L 1015.855469 154.675781 L 1015.183594 152.601562 L 1016.945312 153.882812 L 1018.707031 152.601562 L 1018.035156 154.675781 L 1019.796875 155.957031 L 1017.617188 155.957031 Z M 1016.945312 158.03125 " transform="matrix(1,0,0,-1,0,288)"/>
<path style="fill-rule:nonzero;fill:rgb(17.254639%,62.744141%,17.254639%);fill-opacity:1;stroke-width:1;stroke-linecap:butt;stroke-linejoin:bevel;stroke:rgb(17.254639%,62.744141%,17.254639%);stroke-opacity:1;stroke-miterlimit:10;" d="M 872.597656 117.460938 L 871.925781 115.386719 L 869.746094 115.386719 L 871.507812 114.105469 L 870.835938 112.03125 L 872.597656 113.3125 L 874.363281 112.03125 L 873.6875 114.105469 L 875.453125 115.386719 L 873.273438 115.386719 Z M 872.597656 117.460938 " transform="matrix(1,0,0,-1,0,288)"/>
<path style="fill-rule:nonzero;fill:rgb(83.920288%,15.293884%,15.686035%);fill-opacity:1;stroke-width:1;stroke-linecap:butt;stroke-linejoin:bevel;stroke:rgb(83.920288%,15.293884%,15.686035%);stroke-opacity:1;stroke-miterlimit:10;" d="M 976.703125 82.929688 L 976.027344 80.855469 L 973.847656 80.855469 L 975.613281 79.574219 L 974.9375 77.503906 L 976.703125 78.785156 L 978.464844 77.503906 L 977.792969 79.574219 L 979.554688 80.855469 L 977.375 80.855469 Z M 976.703125 82.929688 " transform="matrix(1,0,0,-1,0,288)"/>
<path style="fill-rule:nonzero;fill:rgb(58.03833%,40.391541%,74.116516%);fill-opacity:1;stroke-width:1;stroke-linecap:butt;stroke-linejoin:bevel;stroke:rgb(58.03833%,40.391541%,74.116516%);stroke-opacity:1;stroke-miterlimit:10;" d="M 948.242188 106.59375 L 947.570312 104.523438 L 945.390625 104.523438 L 947.152344 103.242188 L 946.480469 101.167969 L 948.242188 102.449219 L 950.007812 101.167969 L 949.332031 103.242188 L 951.097656 104.523438 L 948.917969 104.523438 Z M 948.242188 106.59375 " transform="matrix(1,0,0,-1,0,288)"/>
<path style="fill-rule:nonzero;fill:rgb(54.901123%,33.724976%,29.411316%);fill-opacity:1;stroke-width:1;stroke-linecap:butt;stroke-linejoin:bevel;stroke:rgb(54.901123%,33.724976%,29.411316%);stroke-opacity:1;stroke-miterlimit:10;" d="M 1016.5 178.121094 L 1015.828125 176.050781 L 1013.648438 176.050781 L 1015.410156 174.769531 L 1014.738281 172.695312 L 1016.5 173.976562 L 1018.265625 172.695312 L 1017.589844 174.769531 L 1019.355469 176.050781 L 1017.175781 176.050781 Z M 1016.5 178.121094 " transform="matrix(1,0,0,-1,0,288)"/>
<path style="fill-rule:nonzero;fill:rgb(89.01825%,46.665955%,76.077271%);fill-opacity:1;stroke-width:1;stroke-linecap:butt;stroke-linejoin:bevel;stroke:rgb(89.01825%,46.665955%,76.077271%);stroke-opacity:1;stroke-miterlimit:10;" d="M 900.234375 76.746094 L 899.5625 74.671875 L 897.382812 74.671875 L 899.144531 73.390625 L 898.472656 71.320312 L 900.234375 72.601562 L 902 71.320312 L 901.324219 73.390625 L 903.089844 74.671875 L 900.910156 74.671875 Z M 900.234375 76.746094 " transform="matrix(1,0,0,-1,0,288)"/>
<path style="fill-rule:nonzero;fill:rgb(49.803162%,49.803162%,49.803162%);fill-opacity:1;stroke-width:1;stroke-linecap:butt;stroke-linejoin:bevel;stroke:rgb(49.803162%,49.803162%,49.803162%);stroke-opacity:1;stroke-miterlimit:10;" d="M 984.425781 198.90625 L 983.753906 196.832031 L 981.574219 196.832031 L 983.335938 195.550781 L 982.664062 193.476562 L 984.425781 194.757812 L 986.1875 193.476562 L 985.515625 195.550781 L 987.277344 196.832031 L 985.097656 196.832031 Z M 984.425781 198.90625 " transform="matrix(1,0,0,-1,0,288)"/>
<path style="fill-rule:nonzero;fill:rgb(73.724365%,74.116516%,13.33313%);fill-opacity:1;stroke-width:1;stroke-linecap:butt;stroke-linejoin:bevel;stroke:rgb(73.724365%,74.116516%,13.33313%);stroke-opacity:1;stroke-miterlimit:10;" d="M 982.066406 222.808594 L 981.394531 220.738281 L 979.214844 220.738281 L 980.976562 219.457031 L 980.304688 217.382812 L 982.066406 218.664062 L 983.832031 217.382812 L 983.15625 219.457031 L 984.921875 220.738281 L 982.742188 220.738281 Z M 982.066406 222.808594 " transform="matrix(1,0,0,-1,0,288)"/>
<path style="fill-rule:nonzero;fill:rgb(9.01947%,74.508667%,81.175232%);fill-opacity:1;stroke-width:1;stroke-linecap:butt;stroke-linejoin:bevel;stroke:rgb(9.01947%,74.508667%,81.175232%);stroke-opacity:1;stroke-miterlimit:10;" d="M 965.410156 160.109375 L 964.738281 158.035156 L 962.558594 158.035156 L 964.320312 156.753906 L 963.648438 154.679688 L 965.410156 155.960938 L 967.175781 154.679688 L 966.5 156.753906 L 968.265625 158.035156 L 966.085938 158.035156 Z M 965.410156 160.109375 " transform="matrix(1,0,0,-1,0,288)"/>
</g>
</svg>
