<?xml version="1.0" encoding="UTF-8"?>
<svg xmlns="http://www.w3.org/2000/svg" xmlns:xlink="http://www.w3.org/1999/xlink" width="288pt" height="288pt" viewBox="0 0 288 288" version="1.1">
<g id="surface1">
<path style=" stroke:none;fill-rule:nonzero;fill:rgb(100%,100%,100%);fill-opacity:1;" d="M 36 252 L 259.199219 252 L 259.199219 34.558594 L 36 34.558594 Z M 36 252 "/>
<path style="fill-rule:nonzero;fill:rgb(0%,0%,0%);fill-opacity:1;stroke-width:1;stroke-linecap:butt;stroke-linejoin:round;stroke:rgb(0%,0%,0%);stroke-opacity:1;stroke-miterlimit:10;" d="M 0.0000384795 -2.998453 C 0.796913 -2.998453 1.558632 -2.682047 2.121132 -2.119547 C 2.683632 -1.557047 3.000038 -0.795328 3.000038 0.00154694 C 3.000038 0.794516 2.683632 1.560141 2.121132 2.122641 C 1.558632 2.685141 0.796913 3.001547 0.0000384795 3.001547 C -0.796837 3.001547 -1.558555 2.685141 -2.121055 2.122641 C -2.683555 1.560141 -2.999962 0.794516 -2.999962 0.00154694 C -2.999962 -0.795328 -2.683555 -1.557047 -2.121055 -2.119547 C -1.558555 -2.682047 -0.796837 -2.998453 0.0000384795 -2.998453 Z M 0.0000384795 -2.998453 " transform="matrix(1,0,0,-1,90.222618,121.153891)"/>
<path style="fill-rule:nonzero;fill:rgb(0%,0%,0%);fill-opacity:1;stroke-width:1;stroke-linecap:butt;stroke-linejoin:round;stroke:rgb(0%,0%,0%);stroke-opacity:1;stroke-miterlimit:10;" d="M -0.00173446 -3.001194 C 0.795141 -3.001194 1.556859 -2.684788 2.123266 -2.122288 C 2.685766 -1.559788 2.998266 -0.794163 2.998266 -0.00119412 C 2.998266 0.795681 2.685766 1.5574 2.123266 2.1199 C 1.556859 2.6824 0.795141 2.998806 -0.00173446 2.998806 C -0.794703 2.998806 -1.560328 2.6824 -2.122828 2.1199 C -2.685328 1.5574 -3.001734 0.795681 -3.001734 -0.00119412 C -3.001734 -0.794163 -2.685328 -1.559788 -2.122828 -2.122288 C -1.560328 -2.684788 -0.794703 -3.001194 -0.00173446 -3.001194 Z M -0.00173446 -3.001194 " transform="matrix(1,0,0,-1,136.017359,91.573025)"/>
<path style="fill-rule:nonzero;fill:rgb(0%,0%,0%);fill-opacity:1;stroke-width:1;stroke-linecap:butt;stroke-linejoin:round;stroke:rgb(0%,0%,0%);stroke-opacity:1;stroke-miterlimit:10;" d="M 0.00028094 -2.998155 C 0.797156 -2.998155 1.558875 -2.685655 2.121375 -2.123155 C 2.683875 -1.560655 3.000281 -0.79503 3.000281 0.00184492 C 3.000281 0.794814 2.683875 1.560439 2.121375 2.122939 C 1.558875 2.685439 0.797156 3.001845 0.00028094 3.001845 C -0.796594 3.001845 -1.558313 2.685439 -2.120813 2.122939 C -2.683313 1.560439 -2.999719 0.794814 -2.999719 0.00184492 C -2.999719 -0.79503 -2.683313 -1.560655 -2.120813 -2.123155 C -1.558313 -2.685655 -0.796594 -2.998155 0.00028094 -2.998155 Z M 0.00028094 -2.998155 " transform="matrix(1,0,0,-1,199.6755,184.48622)"/>
<path style="fill-rule:nonzero;fill:rgb(0%,0%,0%);fill-opacity:1;stroke-width:1;stroke-linecap:butt;stroke-linejoin:round;stroke:rgb(0%,0%,0%);stroke-opacity:1;stroke-miterlimit:10;" d="M 0.00108604 -3.00127 C 0.794055 -3.00127 1.55968 -2.684864 2.12218 -2.122364 C 2.68468 -1.559864 3.001086 -0.794239 3.001086 -0.00126982 C 3.001086 0.795605 2.68468 1.557324 2.12218 2.119824 C 1.55968 2.682324 0.794055 2.99873 0.00108604 2.99873 C -0.795789 2.99873 -1.557508 2.682324 -2.120008 2.119824 C -2.682508 1.557324 -2.998914 0.795605 -2.998914 -0.00126982 C -2.998914 -0.794239 -2.682508 -1.559864 -2.120008 -2.122364 C -1.557508 -2.684864 -0.795789 -3.00127 0.00108604 -3.00127 Z M 0.00108604 -3.00127 " transform="matrix(1,0,0,-1,106.022351,88.580761)"/>
<path style="fill-rule:nonzero;fill:rgb(0%,0%,0%);fill-opacity:1;stroke-width:1;stroke-linecap:butt;stroke-linejoin:round;stroke:rgb(0%,0%,0%);stroke-opacity:1;stroke-miterlimit:10;" d="M -0.00141979 -2.99915 C 0.795455 -2.99915 1.557174 -2.682743 2.119674 -2.120243 C 2.682174 -1.557743 2.99858 -0.796025 2.99858 0.000850335 C 2.99858 0.793819 2.682174 1.559444 2.119674 2.121944 C 1.557174 2.684444 0.795455 3.00085 -0.00141979 3.00085 C -0.794389 3.00085 -1.560014 2.684444 -2.122514 2.121944 C -2.685014 1.559444 -3.00142 0.793819 -3.00142 0.000850335 C -3.00142 -0.796025 -2.685014 -1.557743 -2.122514 -2.120243 C -1.560014 -2.682743 -0.794389 -2.99915 -0.00141979 -2.99915 Z M -0.00141979 -2.99915 " transform="matrix(1,0,0,-1,232.81392,75.161007)"/>
<path style="fill-rule:nonzero;fill:rgb(0%,0%,0%);fill-opacity:1;stroke-width:1;stroke-linecap:butt;stroke-linejoin:round;stroke:rgb(0%,0%,0%);stroke-opacity:1;stroke-miterlimit:10;" d="M -0.00166846 -3.001879 C 0.795207 -3.001879 1.556925 -2.685473 2.119425 -2.122973 C 2.685832 -1.560473 2.998332 -0.794848 2.998332 -0.00187924 C 2.998332 0.794996 2.685832 1.560621 2.119425 2.123121 C 1.556925 2.685621 0.795207 2.998121 -0.00166846 2.998121 C -0.794637 2.998121 -1.560262 2.685621 -2.122762 2.123121 C -2.685262 1.560621 -3.001668 0.794996 -3.001668 -0.00187924 C -3.001668 -0.794848 -2.685262 -1.560473 -2.122762 -2.122973 C -1.560262 -2.685473 -0.794637 -3.001879 -0.00166846 -3.001879 Z M -0.00166846 -3.001879 " transform="matrix(1,0,0,-1,121.154012,143.099683)"/>
<path style="fill-rule:nonzero;fill:rgb(0%,0%,0%);fill-opacity:1;stroke-width:1;stroke-linecap:butt;stroke-linejoin:round;stroke:rgb(0%,0%,0%);stroke-opacity:1;stroke-miterlimit:10;" d="M -0.00144969 -2.999889 C 0.795425 -2.999889 1.557144 -2.683482 2.119644 -2.120982 C 2.682144 -1.558482 2.99855 -0.796764 2.99855 0.000111461 C 2.99855 0.796986 2.682144 1.558705 2.119644 2.121205 C 1.557144 2.683705 0.795425 3.000111 -0.00144969 3.000111 C -0.794418 3.000111 -1.560043 2.683705 -2.122543 2.121205 C -2.685043 1.558705 -3.00145 0.796986 -3.00145 0.000111461 C -3.00145 -0.796764 -2.685043 -1.558482 -2.122543 -2.120982 C -1.560043 -2.683482 -0.794418 -2.999889 -0.00144969 -2.999889 Z M -0.00144969 -2.999889 " transform="matrix(1,0,0,-1,181.724106,104.738393)"/>
<path style="fill-rule:nonzero;fill:rgb(0%,0%,0%);fill-opacity:1;stroke-width:1;stroke-linecap:butt;stroke-linejoin:round;stroke:rgb(0%,0%,0%);stroke-opacity:1;stroke-miterlimit:10;" d="M -0.00179664 -3.000155 C 0.795078 -3.000155 1.556797 -2.683749 2.123203 -2.121249 C 2.685703 -1.558749 2.998203 -0.79703 2.998203 -0.000155165 C 2.998203 0.79672 2.685703 1.558439 2.123203 2.120939 C 1.556797 2.683439 0.795078 2.999845 -0.00179664 2.999845 C -0.794765 2.999845 -1.56039 2.683439 -2.12289 2.120939 C -2.68539 1.558439 -3.001797 0.79672 -3.001797 -0.000155165 C -3.001797 -0.79703 -2.68539 -1.558749 -2.12289 -2.121249 C -1.56039 -2.683749 -0.794765 -3.000155 -0.00179664 -3.000155 Z M -0.00179664 -3.000155 " transform="matrix(1,0,0,-1,123.46664,132.191251)"/>
<path style="fill-rule:nonzero;fill:rgb(0%,0%,0%);fill-opacity:1;stroke-width:1;stroke-linecap:butt;stroke-linejoin:round;stroke:rgb(0%,0%,0%);stroke-opacity:1;stroke-miterlimit:10;" d="M -0.00159375 -3.001562 C 0.795281 -3.001562 1.557 -2.685156 2.1195 -2.122656 C 2.682 -1.560156 2.998406 -0.794531 2.998406 -0.00156182 C 2.998406 0.795313 2.682 1.557032 2.1195 2.119532 C 1.557 2.682032 0.795281 2.998438 -0.00159375 2.998438 C -0.794562 2.998438 -1.560187 2.682032 -2.122687 2.119532 C -2.685187 1.557032 -3.001594 0.795313 -3.001594 -0.00156182 C -3.001594 -0.794531 -2.685187 -1.560156 -2.122687 -2.122656 C -1.560187 -2.685156 -0.794562 -3.001562 -0.00159375 -3.001562 Z M -0.00159375 -3.001562 " transform="matrix(1,0,0,-1,148.173469,231.385157)"/>
<path style="fill-rule:nonzero;fill:rgb(0%,0%,0%);fill-opacity:1;stroke-width:1;stroke-linecap:butt;stroke-linejoin:round;stroke:rgb(0%,0%,0%);stroke-opacity:1;stroke-miterlimit:10;" d="M 0.00190463 -2.999896 C 0.794873 -2.999896 1.560498 -2.68349 2.122998 -2.12099 C 2.685498 -1.55849 3.001905 -0.796771 3.001905 0.000103757 C 3.001905 0.796979 2.685498 1.558698 2.122998 2.121198 C 1.560498 2.683698 0.794873 3.000104 0.00190463 3.000104 C -0.79497 3.000104 -1.560595 2.683698 -2.123095 2.121198 C -2.685595 1.558698 -2.998095 0.796979 -2.998095 0.000103757 C -2.998095 -0.796771 -2.685595 -1.55849 -2.123095 -2.12099 C -1.560595 -2.68349 -0.79497 -2.999896 0.00190463 -2.999896 Z M 0.00190463 -2.999896 " transform="matrix(1,0,0,-1,198.345752,73.945416)"/>
<path style="fill-rule:nonzero;fill:rgb(0%,0%,0%);fill-opacity:1;stroke-width:1;stroke-linecap:butt;stroke-linejoin:round;stroke:rgb(0%,0%,0%);stroke-opacity:1;stroke-miterlimit:10;" d="M -0.0000430057 -3.000881 C 0.796832 -3.000881 1.558551 -2.684475 2.121051 -2.121975 C 2.683551 -1.559475 2.999957 -0.79385 2.999957 -0.000881282 C 2.999957 0.795994 2.683551 1.557712 2.121051 2.120212 C 1.558551 2.682712 0.796832 2.999119 -0.0000430057 2.999119 C -0.796918 2.999119 -1.558637 2.682712 -2.121137 2.120212 C -2.683637 1.557712 -3.000043 0.795994 -3.000043 -0.000881282 C -3.000043 -0.79385 -2.683637 -1.559475 -2.121137 -2.121975 C -1.558637 -2.684475 -0.796918 -3.000881 -0.0000430057 -3.000881 Z M -0.0000430057 -3.000881 " transform="matrix(1,0,0,-1,122.468793,122.370212)"/>
<path style="fill-rule:nonzero;fill:rgb(0%,0%,0%);fill-opacity:1;stroke-width:1;stroke-linecap:butt;stroke-linejoin:round;stroke:rgb(0%,0%,0%);stroke-opacity:1;stroke-miterlimit:10;" d="M 0.000182804 -3.001691 C 0.797058 -3.001691 1.558777 -2.685285 2.121277 -2.122785 C 2.683777 -1.560285 3.000183 -0.79466 3.000183 -0.00169114 C 3.000183 0.795184 2.683777 1.556903 2.121277 2.119403 C 1.558777 2.685809 0.797058 2.998309 0.000182804 2.998309 C -0.796692 2.998309 -1.558411 2.685809 -2.120911 2.119403 C -2.683411 1.556903 -2.999817 0.795184 -2.999817 -0.00169114 C -2.999817 -0.79466 -2.683411 -1.560285 -2.120911 -2.122785 C -1.558411 -2.685285 -0.796692 -3.001691 0.000182804 -3.001691 Z M 0.000182804 -3.001691 " transform="matrix(1,0,0,-1,68.620911,167.04909)"/>
<path style="fill-rule:nonzero;fill:rgb(0%,0%,0%);fill-opacity:1;stroke-width:1;stroke-linecap:butt;stroke-linejoin:round;stroke:rgb(0%,0%,0%);stroke-opacity:1;stroke-miterlimit:10;" d="M 0.0000035312 -3.001282 C 0.796879 -3.001282 1.558597 -2.684876 2.121097 -2.122376 C 2.683597 -1.559876 3.000004 -0.794251 3.000004 -0.00128205 C 3.000004 0.795593 2.683597 1.557312 2.121097 2.119812 C 1.558597 2.682312 0.796879 2.998718 0.0000035312 2.998718 C -0.796871 2.998718 -1.55859 2.682312 -2.12109 2.119812 C -2.68359 1.557312 -2.999996 0.795593 -2.999996 -0.00128205 C -2.999996 -0.794251 -2.68359 -1.559876 -2.12109 -2.122376 C -1.55859 -2.684876 -0.796871 -3.001282 0.0000035312 -3.001282 Z M 0.0000035312 -3.001282 " transform="matrix(1,0,0,-1,228.164059,115.85028)"/>
<path style="fill-rule:nonzero;fill:rgb(0%,0%,0%);fill-opacity:1;stroke-width:1;stroke-linecap:butt;stroke-linejoin:round;stroke:rgb(0%,0%,0%);stroke-opacity:1;stroke-miterlimit:10;" d="M 0.000789293 -2.998839 C 0.793758 -2.998839 1.559383 -2.682433 2.121883 -2.119933 C 2.684383 -1.557433 3.000789 -0.795714 3.000789 0.0011606 C 3.000789 0.794129 2.684383 1.559754 2.121883 2.122254 C 1.559383 2.684754 0.793758 3.001161 0.000789293 3.001161 C -0.796086 3.001161 -1.557804 2.684754 -2.120304 2.122254 C -2.682804 1.559754 -2.999211 0.794129 -2.999211 0.0011606 C -2.999211 -0.795714 -2.682804 -1.557433 -2.120304 -2.119933 C -1.557804 -2.682433 -0.796086 -2.998839 0.000789293 -2.998839 Z M 0.000789293 -2.998839 " transform="matrix(1,0,0,-1,128.479679,90.962098)"/>
<path style="fill-rule:nonzero;fill:rgb(0%,0%,0%);fill-opacity:1;stroke-width:1;stroke-linecap:butt;stroke-linejoin:round;stroke:rgb(0%,0%,0%);stroke-opacity:1;stroke-miterlimit:10;" d="M -0.000268723 -3.000882 C 0.796606 -3.000882 1.558325 -2.684476 2.120825 -2.121976 C 2.683325 -1.559476 2.999731 -0.793851 2.999731 -0.000882106 C 2.999731 0.795993 2.683325 1.557712 2.120825 2.120212 C 1.558325 2.682712 0.796606 2.999118 -0.000268723 2.999118 C -0.797144 2.999118 -1.558862 2.682712 -2.121362 2.120212 C -2.683862 1.557712 -3.000269 0.795993 -3.000269 -0.000882106 C -3.000269 -0.793851 -2.683862 -1.559476 -2.121362 -2.121976 C -1.558862 -2.684476 -0.797144 -3.000882 -0.000268723 -3.000882 Z M -0.000268723 -3.000882 " transform="matrix(1,0,0,-1,113.531519,130.940524)"/>
<path style="fill-rule:nonzero;fill:rgb(0%,0%,0%);fill-opacity:1;stroke-width:1;stroke-linecap:butt;stroke-linejoin:round;stroke:rgb(0%,0%,0%);stroke-opacity:1;stroke-miterlimit:10;" d="M 0.000118042 -2.998374 C 0.796993 -2.998374 1.558712 -2.681968 2.121212 -2.119468 C 2.683712 -1.556968 3.000118 -0.795249 3.000118 0.00162559 C 3.000118 0.794594 2.683712 1.560219 2.121212 2.122719 C 1.558712 2.685219 0.796993 3.001626 0.000118042 3.001626 C -0.796757 3.001626 -1.558476 2.685219 -2.120976 2.122719 C -2.683476 1.560219 -2.999882 0.794594 -2.999882 0.00162559 C -2.999882 -0.795249 -2.683476 -1.556968 -2.120976 -2.119468 C -1.558476 -2.681968 -0.796757 -2.998374 0.000118042 -2.998374 Z M 0.000118042 -2.998374 " transform="matrix(1,0,0,-1,216.257694,154.845376)"/>
<path style="fill-rule:nonzero;fill:rgb(0%,0%,0%);fill-opacity:1;stroke-width:1;stroke-linecap:butt;stroke-linejoin:round;stroke:rgb(0%,0%,0%);stroke-opacity:1;stroke-miterlimit:10;" d="M 0.00131982 -2.998674 C 0.794289 -2.998674 1.559914 -2.682267 2.122414 -2.119767 C 2.684914 -1.557267 3.00132 -0.795549 3.00132 0.0013264 C 3.00132 0.794295 2.684914 1.55992 2.122414 2.12242 C 1.559914 2.68492 0.794289 3.001326 0.00131982 3.001326 C -0.795555 3.001326 -1.557274 2.68492 -2.119774 2.12242 C -2.682274 1.55992 -2.99868 0.794295 -2.99868 0.0013264 C -2.99868 -0.795549 -2.682274 -1.557267 -2.119774 -2.119767 C -1.557274 -2.682267 -0.795555 -2.998674 0.00131982 -2.998674 Z M 0.00131982 -2.998674 " transform="matrix(1,0,0,-1,203.799461,207.829451)"/>
<path style="fill-rule:nonzero;fill:rgb(0%,0%,0%);fill-opacity:1;stroke-width:1;stroke-linecap:butt;stroke-linejoin:round;stroke:rgb(0%,0%,0%);stroke-opacity:1;stroke-miterlimit:10;" d="M 0.00120937 -3.001071 C 0.794178 -3.001071 1.559803 -2.684664 2.122303 -2.122164 C 2.684803 -1.559664 3.001209 -0.794039 3.001209 -0.00107054 C 3.001209 0.795804 2.684803 1.557523 2.122303 2.120023 C 1.559803 2.682523 0.794178 2.998929 0.00120937 2.998929 C -0.795666 2.998929 -1.557384 2.682523 -2.119884 2.120023 C -2.682384 1.557523 -2.998791 0.795804 -2.998791 -0.00107054 C -2.998791 -0.794039 -2.682384 -1.559664 -2.119884 -2.122164 C -1.557384 -2.684664 -0.795666 -3.001071 0.00120937 -3.001071 Z M 0.00120937 -3.001071 " transform="matrix(1,0,0,-1,185.592541,106.209867)"/>
<path style="fill-rule:nonzero;fill:rgb(0%,0%,0%);fill-opacity:1;stroke-width:1;stroke-linecap:butt;stroke-linejoin:round;stroke:rgb(0%,0%,0%);stroke-opacity:1;stroke-miterlimit:10;" d="M 0.00154334 -2.998983 C 0.794512 -2.998983 1.560137 -2.682577 2.122637 -2.120077 C 2.685137 -1.557577 3.001543 -0.795858 3.001543 0.00101694 C 3.001543 0.793986 2.685137 1.559611 2.122637 2.122111 C 1.560137 2.684611 0.794512 3.001017 0.00154334 3.001017 C -0.795332 3.001017 -1.55705 2.684611 -2.11955 2.122111 C -2.68205 1.559611 -2.998457 0.793986 -2.998457 0.00101694 C -2.998457 -0.795858 -2.68205 -1.557577 -2.11955 -2.120077 C -1.55705 -2.682577 -0.795332 -2.998983 0.00154334 -2.998983 Z M 0.00154334 -2.998983 " transform="matrix(1,0,0,-1,95.295332,66.293986)"/>
<path style="fill-rule:nonzero;fill:rgb(0%,0%,0%);fill-opacity:1;stroke-width:1;stroke-linecap:butt;stroke-linejoin:round;stroke:rgb(0%,0%,0%);stroke-opacity:1;stroke-miterlimit:10;" d="M 0.00166324 -3.001333 C 0.794632 -3.001333 1.560257 -2.684927 2.122757 -2.122427 C 2.685257 -1.559927 3.001663 -0.794302 3.001663 -0.00133302 C 3.001663 0.795542 2.685257 1.557261 2.122757 2.119761 C 1.560257 2.682261 0.794632 2.998667 0.00166324 2.998667 C -0.795212 2.998667 -1.556931 2.682261 -2.119431 2.119761 C -2.685837 1.557261 -2.998337 0.795542 -2.998337 -0.00133302 C -2.998337 -0.794302 -2.685837 -1.559927 -2.119431 -2.122427 C -1.556931 -2.684927 -0.795212 -3.001333 0.00166324 -3.001333 Z M 0.00166324 -3.001333 " transform="matrix(1,0,0,-1,136.838181,69.111948)"/>
<path style="fill-rule:nonzero;fill:rgb(0%,0%,0%);fill-opacity:1;stroke-width:1;stroke-linecap:butt;stroke-linejoin:round;stroke:rgb(0%,0%,0%);stroke-opacity:1;stroke-miterlimit:10;" d="M -0.00185919 -3.001101 C 0.795016 -3.001101 1.560641 -2.684695 2.123141 -2.122195 C 2.685641 -1.559695 2.998141 -0.79407 2.998141 -0.00110084 C 2.998141 0.795774 2.685641 1.557493 2.123141 2.119993 C 1.560641 2.682493 0.795016 2.998899 -0.00185919 2.998899 C -0.794828 2.998899 -1.560453 2.682493 -2.122953 2.119993 C -2.685453 1.557493 -3.001859 0.795774 -3.001859 -0.00110084 C -3.001859 -0.79407 -2.685453 -1.559695 -2.122953 -2.122195 C -1.560453 -2.684695 -0.794828 -3.001101 -0.00185919 -3.001101 Z M -0.00185919 -3.001101 " transform="matrix(1,0,0,-1,65.724515,200.48718)"/>
<path style="fill-rule:nonzero;fill:rgb(0%,0%,0%);fill-opacity:1;stroke-width:1;stroke-linecap:butt;stroke-linejoin:round;stroke:rgb(0%,0%,0%);stroke-opacity:1;stroke-miterlimit:10;" d="M -0.00183186 -2.998271 C 0.795043 -2.998271 1.560668 -2.685771 2.123168 -2.123271 C 2.685668 -1.556864 2.998168 -0.795146 2.998168 0.00172927 C 2.998168 0.794698 2.685668 1.560323 2.123168 2.122823 C 1.560668 2.685323 0.795043 3.001729 -0.00183186 3.001729 C -0.794801 3.001729 -1.560426 2.685323 -2.122926 2.122823 C -2.685426 1.560323 -3.001832 0.794698 -3.001832 0.00172927 C -3.001832 -0.795146 -2.685426 -1.556864 -2.122926 -2.123271 C -1.560426 -2.685771 -0.794801 -2.998271 -0.00183186 -2.998271 Z M -0.00183186 -2.998271 " transform="matrix(1,0,0,-1,63.408082,111.591573)"/>
<path style="fill-rule:nonzero;fill:rgb(0%,0%,0%);fill-opacity:1;stroke-width:1;stroke-linecap:butt;stroke-linejoin:round;stroke:rgb(0%,0%,0%);stroke-opacity:1;stroke-miterlimit:10;" d="M -0.000990318 -3.001895 C 0.795885 -3.001895 1.557603 -2.685489 2.120103 -2.122989 C 2.682603 -1.560489 2.99901 -0.794864 2.99901 -0.00189529 C 2.99901 0.79498 2.682603 1.560605 2.120103 2.123105 C 1.557603 2.685605 0.795885 2.998105 -0.000990318 2.998105 C -0.793959 2.998105 -1.559584 2.685605 -2.122084 2.123105 C -2.684584 1.560605 -3.00099 0.79498 -3.00099 -0.00189529 C -3.00099 -0.794864 -2.684584 -1.560489 -2.122084 -2.122989 C -1.559584 -2.685489 -0.793959 -3.001895 -0.000990318 -3.001895 Z M -0.000990318 -3.001895 " transform="matrix(1,0,0,-1,165.200209,137.244198)"/>
<path style="fill-rule:nonzero;fill:rgb(0%,0%,0%);fill-opacity:1;stroke-width:1;stroke-linecap:butt;stroke-linejoin:round;stroke:rgb(0%,0%,0%);stroke-opacity:1;stroke-miterlimit:10;" d="M 0.00188059 -3.000112 C 0.794849 -3.000112 1.560474 -2.683705 2.122974 -2.121205 C 2.685474 -1.558705 3.001881 -0.796987 3.001881 -0.000111608 C 3.001881 0.796763 2.685474 1.558482 2.122974 2.120982 C 1.560474 2.683482 0.794849 2.999888 0.00188059 2.999888 C -0.794994 2.999888 -1.560619 2.683482 -2.123119 2.120982 C -2.685619 1.558482 -2.998119 0.796763 -2.998119 -0.000111608 C -2.998119 -0.796987 -2.685619 -1.558705 -2.123119 -2.121205 C -1.560619 -2.683705 -0.794994 -3.000112 0.00188059 -3.000112 Z M 0.00188059 -3.000112 " transform="matrix(1,0,0,-1,62.658276,132.148326)"/>
<path style="fill-rule:nonzero;fill:rgb(0%,0%,0%);fill-opacity:1;stroke-width:1;stroke-linecap:butt;stroke-linejoin:round;stroke:rgb(0%,0%,0%);stroke-opacity:1;stroke-miterlimit:10;" d="M -0.000362135 -2.999778 C 0.796513 -2.999778 1.558232 -2.683371 2.120732 -2.120871 C 2.683232 -1.558371 2.999638 -0.796653 2.999638 0.00022234 C 2.999638 0.797097 2.683232 1.558816 2.120732 2.121316 C 1.558232 2.683816 0.796513 3.000222 -0.000362135 3.000222 C -0.797237 3.000222 -1.558956 2.683816 -2.121456 2.121316 C -2.683956 1.558816 -3.000362 0.797097 -3.000362 0.00022234 C -3.000362 -0.796653 -2.683956 -1.558371 -2.121456 -2.120871 C -1.558956 -2.683371 -0.797237 -2.999778 -0.000362135 -2.999778 Z M -0.000362135 -2.999778 " transform="matrix(1,0,0,-1,115.918331,142.74241)"/>
<path style="fill-rule:nonzero;fill:rgb(0%,0%,0%);fill-opacity:1;stroke-width:1;stroke-linecap:butt;stroke-linejoin:round;stroke:rgb(0%,0%,0%);stroke-opacity:1;stroke-miterlimit:10;" d="M 0.00171943 -2.998968 C 0.794688 -2.998968 1.560313 -2.682562 2.122813 -2.120062 C 2.685313 -1.557562 3.001719 -0.795843 3.001719 0.00103168 C 3.001719 0.794 2.685313 1.559625 2.122813 2.122125 C 1.560313 2.684625 0.794688 3.001032 0.00171943 3.001032 C -0.795156 3.001032 -1.556874 2.684625 -2.119374 2.122125 C -2.685781 1.559625 -2.998281 0.794 -2.998281 0.00103168 C -2.998281 -0.795843 -2.685781 -1.557562 -2.119374 -2.120062 C -1.556874 -2.682562 -0.795156 -2.998968 0.00171943 -2.998968 Z M 0.00171943 -2.998968 " transform="matrix(1,0,0,-1,75.412343,123.8565)"/>
<path style="fill-rule:nonzero;fill:rgb(0%,0%,0%);fill-opacity:1;stroke-width:1;stroke-linecap:butt;stroke-linejoin:round;stroke:rgb(0%,0%,0%);stroke-opacity:1;stroke-miterlimit:10;" d="M 0.00148389 -3.001898 C 0.794453 -3.001898 1.560078 -2.685492 2.122578 -2.122992 C 2.685078 -1.560492 3.001484 -0.794867 3.001484 -0.00189803 C 3.001484 0.794977 2.685078 1.560602 2.122578 2.123102 C 1.560078 2.685602 0.794453 2.998102 0.00148389 2.998102 C -0.795391 2.998102 -1.55711 2.685602 -2.11961 2.123102 C -2.68211 1.560602 -2.998516 0.794977 -2.998516 -0.00189803 C -2.998516 -0.794867 -2.68211 -1.560492 -2.11961 -2.122992 C -1.55711 -2.685492 -0.795391 -3.001898 0.00148389 -3.001898 Z M 0.00148389 -3.001898 " transform="matrix(1,0,0,-1,159.865704,232.654352)"/>
<path style="fill-rule:nonzero;fill:rgb(0%,0%,0%);fill-opacity:1;stroke-width:1;stroke-linecap:butt;stroke-linejoin:round;stroke:rgb(0%,0%,0%);stroke-opacity:1;stroke-miterlimit:10;" d="M 0.00115466 -2.99823 C 0.794123 -2.99823 1.559748 -2.68573 2.122248 -2.12323 C 2.684748 -1.556823 3.001155 -0.795105 3.001155 0.00177048 C 3.001155 0.794739 2.684748 1.560364 2.122248 2.122864 C 1.559748 2.685364 0.794123 3.00177 0.00115466 3.00177 C -0.79572 3.00177 -1.557439 2.685364 -2.119939 2.122864 C -2.682439 1.560364 -2.998845 0.794739 -2.998845 0.00177048 C -2.998845 -0.795105 -2.682439 -1.556823 -2.119939 -2.12323 C -1.557439 -2.68573 -0.79572 -2.99823 0.00115466 -2.99823 Z M 0.00115466 -2.99823 " transform="matrix(1,0,0,-1,169.444158,68.603333)"/>
<path style="fill-rule:nonzero;fill:rgb(0%,0%,0%);fill-opacity:1;stroke-width:1;stroke-linecap:butt;stroke-linejoin:round;stroke:rgb(0%,0%,0%);stroke-opacity:1;stroke-miterlimit:10;" d="M -0.000769999 -2.998443 C 0.796105 -2.998443 1.557824 -2.682037 2.120324 -2.119537 C 2.682824 -1.557037 2.99923 -0.795318 2.99923 0.00155708 C 2.99923 0.794526 2.682824 1.560151 2.120324 2.122651 C 1.557824 2.685151 0.796105 3.001557 -0.000769999 3.001557 C -0.793739 3.001557 -1.559364 2.685151 -2.121864 2.122651 C -2.684364 1.560151 -3.00077 0.794526 -3.00077 0.00155708 C -3.00077 -0.795318 -2.684364 -1.557037 -2.121864 -2.119537 C -1.559364 -2.682037 -0.793739 -2.998443 -0.000769999 -2.998443 Z M -0.000769999 -2.998443 " transform="matrix(1,0,0,-1,201.637489,54.114838)"/>
<path style="fill-rule:nonzero;fill:rgb(0%,0%,0%);fill-opacity:1;stroke-width:1;stroke-linecap:butt;stroke-linejoin:round;stroke:rgb(0%,0%,0%);stroke-opacity:1;stroke-miterlimit:10;" d="M 0.00037224 -2.998901 C 0.797247 -2.998901 1.558966 -2.682495 2.121466 -2.119995 C 2.683966 -1.557495 3.000372 -0.795776 3.000372 0.00109869 C 3.000372 0.794067 2.683966 1.559692 2.121466 2.122192 C 1.558966 2.684692 0.797247 3.001099 0.00037224 3.001099 C -0.796503 3.001099 -1.558222 2.684692 -2.120722 2.122192 C -2.683222 1.559692 -2.999628 0.794067 -2.999628 0.00109869 C -2.999628 -0.795776 -2.683222 -1.557495 -2.120722 -2.119995 C -1.558222 -2.682495 -0.796503 -2.998901 0.00037224 -2.998901 Z M 0.00037224 -2.998901 " transform="matrix(1,0,0,-1,232.937128,90.376099)"/>
<path style="fill-rule:nonzero;fill:rgb(0%,0%,0%);fill-opacity:1;stroke-width:1;stroke-linecap:butt;stroke-linejoin:round;stroke:rgb(0%,0%,0%);stroke-opacity:1;stroke-miterlimit:10;" d="M -0.000428564 -2.999438 C 0.796446 -2.999438 1.558165 -2.683032 2.120665 -2.120532 C 2.683165 -1.558032 2.999571 -0.796313 2.999571 0.000561748 C 2.999571 0.797437 2.683165 1.559155 2.120665 2.121655 C 1.558165 2.684155 0.796446 3.000562 -0.000428564 3.000562 C -0.797304 3.000562 -1.559022 2.684155 -2.121522 2.121655 C -2.684022 1.559155 -3.000429 0.797437 -3.000429 0.000561748 C -3.000429 -0.796313 -2.684022 -1.558032 -2.121522 -2.120532 C -1.559022 -2.683032 -0.797304 -2.999438 -0.000428564 -2.999438 Z M -0.000428564 -2.999438 " transform="matrix(1,0,0,-1,107.656679,120.645093)"/>
<path style="fill-rule:nonzero;fill:rgb(0%,0%,0%);fill-opacity:1;stroke-width:1;stroke-linecap:butt;stroke-linejoin:round;stroke:rgb(0%,0%,0%);stroke-opacity:1;stroke-miterlimit:10;" d="M 0.00189776 -2.998217 C 0.794867 -2.998217 1.560492 -2.685717 2.122992 -2.123217 C 2.685492 -1.556811 3.001898 -0.795092 3.001898 0.00178263 C 3.001898 0.794751 2.685492 1.560376 2.122992 2.122876 C 1.560492 2.685376 0.794867 3.001783 0.00189776 3.001783 C -0.794977 3.001783 -1.560602 2.685376 -2.123102 2.122876 C -2.685602 1.560376 -2.998102 0.794751 -2.998102 0.00178263 C -2.998102 -0.795092 -2.685602 -1.556811 -2.123102 -2.123217 C -1.560602 -2.685717 -0.794977 -2.998217 0.00189776 -2.998217 Z M 0.00189776 -2.998217 " transform="matrix(1,0,0,-1,143.525446,198.423658)"/>
<path style="fill-rule:nonzero;fill:rgb(0%,0%,0%);fill-opacity:1;stroke-width:1;stroke-linecap:butt;stroke-linejoin:round;stroke:rgb(0%,0%,0%);stroke-opacity:1;stroke-miterlimit:10;" d="M -0.000108578 -2.999099 C 0.796766 -2.999099 1.558485 -2.682693 2.120985 -2.120193 C 2.683485 -1.557693 2.999891 -0.795974 2.999891 0.000900751 C 2.999891 0.79387 2.683485 1.559495 2.120985 2.121995 C 1.558485 2.684495 0.796766 3.000901 -0.000108578 3.000901 C -0.796984 3.000901 -1.558702 2.684495 -2.121202 2.121995 C -2.683702 1.559495 -3.000109 0.79387 -3.000109 0.000900751 C -3.000109 -0.795974 -2.683702 -1.557693 -2.121202 -2.120193 C -1.558702 -2.682693 -0.796984 -2.999099 -0.000108578 -2.999099 Z M -0.000108578 -2.999099 " transform="matrix(1,0,0,-1,125.711046,224.118088)"/>
<path style="fill-rule:nonzero;fill:rgb(0%,0%,0%);fill-opacity:1;stroke-width:1;stroke-linecap:butt;stroke-linejoin:round;stroke:rgb(0%,0%,0%);stroke-opacity:1;stroke-miterlimit:10;" d="M -0.00113519 -3.000665 C 0.79574 -3.000665 1.557459 -2.684259 2.119959 -2.121759 C 2.682459 -1.559259 2.998865 -0.79754 2.998865 -0.000665414 C 2.998865 0.79621 2.682459 1.557928 2.119959 2.120428 C 1.557459 2.682928 0.79574 2.999335 -0.00113519 2.999335 C -0.794104 2.999335 -1.559729 2.682928 -2.122229 2.120428 C -2.684729 1.557928 -3.001135 0.79621 -3.001135 -0.000665414 C -3.001135 -0.79754 -2.684729 -1.559259 -2.122229 -2.121759 C -1.559729 -2.684259 -0.794104 -3.000665 -0.00113519 -3.000665 Z M -0.00113519 -3.000665 " transform="matrix(1,0,0,-1,138.606604,55.940741)"/>
<path style="fill-rule:nonzero;fill:rgb(0%,0%,0%);fill-opacity:1;stroke-width:1;stroke-linecap:butt;stroke-linejoin:round;stroke:rgb(0%,0%,0%);stroke-opacity:1;stroke-miterlimit:10;" d="M -0.000998541 -3.001819 C 0.795876 -3.001819 1.557595 -2.685412 2.120095 -2.122912 C 2.682595 -1.560412 2.999001 -0.794787 2.999001 -0.0018187 C 2.999001 0.795056 2.682595 1.560681 2.120095 2.123181 C 1.557595 2.685681 0.795876 2.998181 -0.000998541 2.998181 C -0.793967 2.998181 -1.559592 2.685681 -2.122092 2.123181 C -2.684592 1.560681 -3.000999 0.795056 -3.000999 -0.0018187 C -3.000999 -0.794787 -2.684592 -1.560412 -2.122092 -2.122912 C -1.559592 -2.685412 -0.793967 -3.001819 -0.000998541 -3.001819 Z M -0.000998541 -3.001819 " transform="matrix(1,0,0,-1,77.653342,212.248181)"/>
<path style="fill-rule:nonzero;fill:rgb(0%,0%,0%);fill-opacity:1;stroke-width:1;stroke-linecap:butt;stroke-linejoin:round;stroke:rgb(0%,0%,0%);stroke-opacity:1;stroke-miterlimit:10;" d="M -0.000444693 -3.000356 C 0.79643 -3.000356 1.558149 -2.68395 2.120649 -2.12145 C 2.683149 -1.55895 2.999555 -0.797231 2.999555 -0.000355884 C 2.999555 0.796519 2.683149 1.558238 2.120649 2.120738 C 1.558149 2.683238 0.79643 2.999644 -0.000444693 2.999644 C -0.79732 2.999644 -1.559038 2.683238 -2.121538 2.120738 C -2.684038 1.558238 -3.000445 0.796519 -3.000445 -0.000355884 C -3.000445 -0.797231 -2.684038 -1.55895 -2.121538 -2.12145 C -1.559038 -2.68395 -0.79732 -3.000356 -0.000444693 -3.000356 Z M -0.000444693 -3.000356 " transform="matrix(1,0,0,-1,191.965288,127.460582)"/>
<path style="fill-rule:nonzero;fill:rgb(0%,0%,0%);fill-opacity:1;stroke-width:1;stroke-linecap:butt;stroke-linejoin:round;stroke:rgb(0%,0%,0%);stroke-opacity:1;stroke-miterlimit:10;" d="M 0.000567366 -3.000129 C 0.797442 -3.000129 1.559161 -2.683723 2.121661 -2.121223 C 2.684161 -1.558723 3.000567 -0.797004 3.000567 -0.000129276 C 3.000567 0.796746 2.684161 1.558464 2.121661 2.120964 C 1.559161 2.683464 0.797442 2.999871 0.000567366 2.999871 C -0.796308 2.999871 -1.558026 2.683464 -2.120526 2.120964 C -2.683026 1.558464 -2.999433 0.796746 -2.999433 -0.000129276 C -2.999433 -0.797004 -2.683026 -1.558723 -2.120526 -2.121223 C -1.558026 -2.683723 -0.796308 -3.000129 0.000567366 -3.000129 Z M 0.000567366 -3.000129 " transform="matrix(1,0,0,-1,142.323651,214.468621)"/>
<path style="fill-rule:nonzero;fill:rgb(0%,0%,0%);fill-opacity:1;stroke-width:1;stroke-linecap:butt;stroke-linejoin:round;stroke:rgb(0%,0%,0%);stroke-opacity:1;stroke-miterlimit:10;" d="M -0.000278176 -2.998381 C 0.796597 -2.998381 1.558316 -2.681975 2.120816 -2.119475 C 2.683316 -1.556975 2.999722 -0.795256 2.999722 0.0016192 C 2.999722 0.794588 2.683316 1.560213 2.120816 2.122713 C 1.558316 2.685213 0.796597 3.001619 -0.000278176 3.001619 C -0.797153 3.001619 -1.558872 2.685213 -2.121372 2.122713 C -2.683872 1.560213 -3.000278 0.794588 -3.000278 0.0016192 C -3.000278 -0.795256 -2.683872 -1.556975 -2.121372 -2.119475 C -1.558872 -2.681975 -0.797153 -2.998381 -0.000278176 -2.998381 Z M -0.000278176 -2.998381 " transform="matrix(1,0,0,-1,97.234653,70.806307)"/>
<path style="fill-rule:nonzero;fill:rgb(0%,0%,0%);fill-opacity:1;stroke-width:1;stroke-linecap:butt;stroke-linejoin:round;stroke:rgb(0%,0%,0%);stroke-opacity:1;stroke-miterlimit:10;" d="M 0.00102947 -3.001478 C 0.793998 -3.001478 1.559623 -2.685071 2.122123 -2.122571 C 2.684623 -1.560071 3.001029 -0.794446 3.001029 -0.0014775 C 3.001029 0.795397 2.684623 1.557116 2.122123 2.119616 C 1.559623 2.682116 0.793998 2.998522 0.00102947 2.998522 C -0.795846 2.998522 -1.557564 2.682116 -2.120064 2.119616 C -2.682564 1.557116 -2.998971 0.795397 -2.998971 -0.0014775 C -2.998971 -0.794446 -2.682564 -1.560071 -2.120064 -2.122571 C -1.557564 -2.685071 -0.795846 -3.001478 0.00102947 -3.001478 Z M 0.00102947 -3.001478 " transform="matrix(1,0,0,-1,132.116158,136.783679)"/>
<path style="fill-rule:nonzero;fill:rgb(0%,0%,0%);fill-opacity:1;stroke-width:1;stroke-linecap:butt;stroke-linejoin:round;stroke:rgb(0%,0%,0%);stroke-opacity:1;stroke-miterlimit:10;" d="M -0.000877835 -2.998621 C 0.795997 -2.998621 1.557716 -2.682215 2.120216 -2.119715 C 2.682716 -1.557215 2.999122 -0.795496 2.999122 0.00137916 C 2.999122 0.794348 2.682716 1.559973 2.120216 2.122473 C 1.557716 2.684973 0.795997 3.001379 -0.000877835 3.001379 C -0.793847 3.001379 -1.559472 2.684973 -2.121972 2.122473 C -2.684472 1.559973 -3.000878 0.794348 -3.000878 0.00137916 C -3.000878 -0.795496 -2.684472 -1.557215 -2.121972 -2.119715 C -1.559472 -2.682215 -0.793847 -2.998621 -0.000877835 -2.998621 Z M -0.000877835 -2.998621 " transform="matrix(1,0,0,-1,55.754784,179.403723)"/>
<path style="fill:none;stroke-width:0.8;stroke-linecap:square;stroke-linejoin:miter;stroke:rgb(0%,0%,0%);stroke-opacity:1;stroke-miterlimit:10;" d="M 36 36 L 36 253.441406 " transform="matrix(1,0,0,-1,0,288)"/>
<path style="fill:none;stroke-width:0.8;stroke-linecap:square;stroke-linejoin:miter;stroke:rgb(0%,0%,0%);stroke-opacity:1;stroke-miterlimit:10;" d="M 259.199219 36 L 259.199219 253.441406 " transform="matrix(1,0,0,-1,0,288)"/>
<path style="fill:none;stroke-width:0.8;stroke-linecap:square;stroke-linejoin:miter;stroke:rgb(0%,0%,0%);stroke-opacity:1;stroke-miterlimit:10;" d="M 36 36 L 259.199219 36 " transform="matrix(1,0,0,-1,0,288)"/>
<path style="fill:none;stroke-width:0.8;stroke-linecap:square;stroke-linejoin:miter;stroke:rgb(0%,0%,0%);stroke-opacity:1;stroke-miterlimit:10;" d="M 36 253.441406 L 259.199219 253.441406 " transform="matrix(1,0,0,-1,0,288)"/>
</g>
</svg>
